# xmcd
#
# Track frame offsets:
#	150
#	19903
#	37623
#	51665
#	69663
#	87661
#	104109
#	120820
#	138663
#	158697
#
# Disc length: 2375 seconds
#
# Revision: 0
# Processed by: cddbd v1.5.2PL0 Copyright (c) Steve Scherf et al.
# Submitted via: EZCDAudioConverter 7.0.6.1
#
DISCID=8809450a
DTITLE=Maranatha! 6: A Family Portrait
DYEAR=1900
DGENRE=
TTITLE0=Karen Lafferty - Beautiful Day
TTITLE1=Bruce Herring - Perfect Will
TTITLE2=Sweet Comfort - Somebody Loves You
TTITLE3=Aslan - Who Loves The Lonely
TTITLE4=Erick Nelson - He Gave Me Love
TTITLE5=Parable - The Plain Truth
TTITLE6=Bethlehem - Desert Song
TTITLE7=Becky Ugartechea - Nightingale
TTITLE8=Daniel Amos - Father's Arms
TTITLE9=Bob and Joy Cull - Sail Away
EXTD=
EXTT0=
EXTT1=
EXTT2=
EXTT3=
EXTT4=
EXTT5=
EXTT6=
EXTT7=
EXTT8=
EXTT9=
PLAYORDER=
